<svg width="50" height="70" viewBox="0 0 50 70" fill="none" xmlns="http://www.w3.org/2000/svg">
<rect x="0.595825" y="0.719391" width="48.8794" height="48.8794" rx="11.9606" fill="#36DA76"/>
<path d="M31.3655 34.6862C31.3245 33.8091 31.2701 32.9365 31.2266 32.0659C31.086 29.3425 31.0975 26.5792 30.9503 23.8423C30.8032 21.1259 30.8905 18.4077 30.8128 15.6914C30.7972 15.1268 30.8224 14.0119 30.2383 13.6901C28.9817 12.9987 28.2357 14.8845 27.916 15.6522C27.3397 17.0457 27.0067 18.5114 26.5951 19.9551C26.2443 21.1908 25.8448 22.4226 25.7094 23.7021C25.6091 24.6621 25.6183 25.7369 26.1198 26.6019C26.3717 27.0367 26.8071 27.3326 27.303 27.4576C27.8176 27.5893 28.406 27.4169 28.8944 27.6493C29.0203 27.7101 29.1311 27.8365 29.1817 27.9642C29.3399 28.3755 29.1902 28.9996 29.1407 29.4239C28.984 30.791 28.8182 32.1716 28.744 33.5452C28.7001 34.3759 28.6516 35.4398 29.1541 36.1635C29.4622 36.603 30.0864 37.0134 30.6496 36.795C31.4915 36.4728 31.4005 35.3843 31.3655 34.6862Z" fill="white"/>
<path d="M20.6559 14.2965C20.4139 14.3935 20.5057 15.2584 20.4949 15.5242C20.479 16.0016 20.5116 16.6334 20.4541 17.2522C20.4537 17.2577 20.4529 17.2616 20.4521 17.2654C20.4471 17.3084 20.4431 17.3548 20.436 17.4038C20.4285 17.4511 20.4205 17.4967 20.4147 17.5435C20.3631 17.8452 20.2649 18.2025 20.0794 18.3738C19.8687 18.5697 19.3966 18.5285 19.2326 18.297C18.9643 17.9202 18.9845 17.0789 18.9682 17.0541C18.9573 16.6561 18.8993 15.4523 18.8123 14.6587C18.8051 14.5989 18.7935 14.2392 18.4651 14.2007C18.3119 14.1841 18.1508 14.3146 18.0985 14.553C17.9443 15.2566 17.7998 16.598 17.7907 16.8089C17.7889 16.8293 17.788 16.8531 17.7879 16.8731C17.7879 16.8731 17.7871 16.8769 17.7875 16.8786C17.7865 16.9224 17.7344 17.9733 17.4684 18.3358C17.3294 18.5259 16.9686 18.6754 16.61 18.4742C16.4672 18.3933 16.3693 18.2372 16.3003 18.0701C15.9253 16.9029 16.2619 15.6171 16.3098 15.0044C16.324 14.8321 16.4801 14.2567 16.1319 14.276C15.6077 14.3044 14.9308 16.5379 14.8097 17.0497C14.513 18.3234 14.468 19.6844 14.9842 20.913C15.2709 21.5933 15.8318 22.1503 16.5273 22.4203C16.8346 22.5385 17.1762 22.6243 17.5379 22.6741C17.4078 25.5697 17.26 28.5912 17.1255 30.2728C17.022 31.5382 16.8998 32.8176 16.9162 34.0883C16.926 34.8475 16.918 35.7527 17.4163 36.3893C17.9376 37.0544 19.0372 36.7484 19.3341 35.9626C19.6671 35.0767 19.5702 34.0444 19.4568 32.4179C19.343 30.7896 19.2148 28.5684 19.1442 27.3734C19.0408 25.6137 19.0047 24.076 18.9948 22.673C19.9207 22.5407 20.7843 22.1434 21.2677 21.4128C21.4797 21.0932 21.6193 20.7361 21.7147 20.3687C21.8609 19.8122 21.9322 19.2025 21.9006 18.6285C21.8685 18.1 21.4342 13.9847 20.6559 14.2965Z" fill="white"/>
<path d="M19.3858 64.7195V65.5791H15.1645V64.7195H19.3858ZM15.378 57.6073V65.5791H14.3213V57.6073H15.378ZM18.8274 61.0347V61.8943H15.1645V61.0347H18.8274ZM19.3311 57.6073V58.4724H15.1645V57.6073H19.3311ZM24.4828 64.5662V61.5165C24.4828 61.2829 24.4353 61.0804 24.3404 60.9088C24.2491 60.7336 24.1104 60.5985 23.9243 60.5036C23.7381 60.4087 23.5082 60.3613 23.2344 60.3613C22.9789 60.3613 22.7544 60.4051 22.561 60.4927C22.3712 60.5803 22.2215 60.6953 22.112 60.8376C22.0062 60.98 21.9532 61.1333 21.9532 61.2975H20.9403C20.9403 61.0858 20.9951 60.876 21.1046 60.6679C21.2141 60.4598 21.371 60.2719 21.5755 60.104C21.7835 59.9324 22.0317 59.7973 22.3201 59.6988C22.6121 59.5966 22.9369 59.5455 23.2946 59.5455C23.7254 59.5455 24.105 59.6185 24.4335 59.7645C24.7656 59.9105 25.0248 60.1313 25.2109 60.427C25.4008 60.719 25.4957 61.0858 25.4957 61.5275V64.287C25.4957 64.4841 25.5121 64.694 25.5449 64.9166C25.5814 65.1393 25.6344 65.3309 25.7037 65.4915V65.5791H24.647C24.5959 65.4623 24.5558 65.3072 24.5266 65.1137C24.4974 64.9166 24.4828 64.7341 24.4828 64.5662ZM24.658 61.9874L24.6689 62.6992H23.6451C23.3567 62.6992 23.0994 62.7229 22.8731 62.7704C22.6468 62.8142 22.457 62.8817 22.3036 62.9729C22.1503 63.0642 22.0335 63.1792 21.9532 63.3179C21.8729 63.4529 21.8328 63.6117 21.8328 63.7942C21.8328 63.9804 21.8748 64.1501 21.9587 64.3034C22.0427 64.4567 22.1686 64.579 22.3365 64.6702C22.5081 64.7578 22.7179 64.8016 22.9661 64.8016C23.2764 64.8016 23.5502 64.7359 23.7874 64.6045C24.0247 64.4731 24.2126 64.3125 24.3514 64.1227C24.4937 63.9329 24.5704 63.7486 24.5813 63.5697L25.0138 64.057C24.9883 64.2103 24.9189 64.38 24.8058 64.5662C24.6926 64.7524 24.5412 64.9312 24.3514 65.1028C24.1652 65.2707 23.9425 65.4112 23.6834 65.5244C23.4279 65.6339 23.1395 65.6886 22.8183 65.6886C22.4168 65.6886 22.0646 65.6101 21.7616 65.4532C21.4623 65.2962 21.2287 65.0863 21.0608 64.8235C20.8965 64.5571 20.8144 64.2596 20.8144 63.9311C20.8144 63.6135 20.8765 63.3343 21.0006 63.0934C21.1247 62.8488 21.3035 62.6462 21.5371 62.4856C21.7707 62.3214 22.0518 62.1973 22.3803 62.1133C22.7088 62.0294 23.0756 61.9874 23.4808 61.9874H24.658ZM30.0177 59.655V60.4325H26.8147V59.655H30.0177ZM27.8988 58.215H28.9117V64.1118C28.9117 64.3125 28.9427 64.464 29.0048 64.5662C29.0668 64.6684 29.1471 64.7359 29.2457 64.7688C29.3442 64.8016 29.4501 64.8181 29.5632 64.8181C29.6472 64.8181 29.7348 64.8108 29.8261 64.7962C29.921 64.7779 29.9921 64.7633 30.0396 64.7524L30.0451 65.5791C29.9648 65.6047 29.8589 65.6284 29.7275 65.6503C29.5998 65.6758 29.4446 65.6886 29.2621 65.6886C29.0139 65.6886 28.7858 65.6393 28.5777 65.5408C28.3697 65.4422 28.2036 65.278 28.0795 65.048C27.959 64.8144 27.8988 64.5005 27.8988 64.1063V58.215ZM35.1037 64.0077C35.1037 63.8617 35.0708 63.7267 35.0051 63.6026C34.9431 63.4748 34.8135 63.3598 34.6164 63.2576C34.4229 63.1518 34.1309 63.0605 33.7403 62.9839C33.4118 62.9145 33.1144 62.8324 32.8479 62.7375C32.5851 62.6426 32.3606 62.5276 32.1745 62.3926C31.9919 62.2575 31.8514 62.0987 31.7529 61.9162C31.6543 61.7337 31.605 61.5202 31.605 61.2756C31.605 61.042 31.6561 60.8212 31.7583 60.6131C31.8642 60.4051 32.012 60.2208 32.2018 60.0602C32.3953 59.8996 32.6271 59.7736 32.8972 59.6824C33.1673 59.5911 33.4684 59.5455 33.8006 59.5455C34.2751 59.5455 34.6802 59.6294 35.0161 59.7973C35.3519 59.9653 35.6092 60.1897 35.788 60.4708C35.9669 60.7482 36.0563 61.0566 36.0563 61.3961H35.0434C35.0434 61.2318 34.9942 61.0731 34.8956 60.9198C34.8007 60.7628 34.6602 60.6332 34.474 60.531C34.2915 60.4288 34.067 60.3777 33.8006 60.3777C33.5195 60.3777 33.2914 60.4215 33.1162 60.5091C32.9446 60.5931 32.8187 60.7007 32.7384 60.8322C32.6617 60.9636 32.6234 61.1023 32.6234 61.2483C32.6234 61.3578 32.6417 61.4563 32.6782 61.5439C32.7183 61.6279 32.7877 61.7063 32.8862 61.7794C32.9848 61.8487 33.1235 61.9144 33.3023 61.9765C33.4812 62.0385 33.7093 62.1006 33.9867 62.1626C34.4722 62.2721 34.8719 62.4035 35.1858 62.5568C35.4997 62.7101 35.7333 62.8981 35.8866 63.1208C36.0399 63.3434 36.1166 63.6135 36.1166 63.9311C36.1166 64.1902 36.0618 64.4275 35.9523 64.6429C35.8465 64.8582 35.6913 65.0444 35.4869 65.2013C35.2862 65.3546 35.0453 65.4751 34.7642 65.5627C34.4868 65.6466 34.1747 65.6886 33.8279 65.6886C33.306 65.6886 32.8643 65.5955 32.503 65.4094C32.1416 65.2232 31.8678 64.9823 31.6817 64.6867C31.4955 64.391 31.4025 64.0789 31.4025 63.7504H32.4208C32.4354 64.0278 32.5157 64.2486 32.6617 64.4129C32.8077 64.5735 32.9866 64.6885 33.1983 64.7578C33.41 64.8235 33.6199 64.8564 33.8279 64.8564C34.1054 64.8564 34.3371 64.8199 34.5233 64.7469C34.7131 64.6739 34.8573 64.5735 34.9558 64.4457C35.0544 64.318 35.1037 64.172 35.1037 64.0077Z" fill="#8E8E94"/>
</svg>
