<svg width="131" height="25" viewBox="0 0 131 25" fill="none" xmlns="http://www.w3.org/2000/svg">
<path d="M97.8719 5.72202C98.8909 5.72202 99.8161 5.85164 100.647 6.11088C101.479 6.37011 102.181 6.70533 102.753 7.11653C103.11 7.36683 103.392 7.64395 103.597 7.94788C103.803 8.25181 103.906 8.64514 103.906 9.12785V18.514L103.901 18.7692C103.872 19.6092 103.695 20.3421 103.369 20.9678C103.012 21.6561 102.525 22.2282 101.908 22.6841C101.291 23.14 100.567 23.4753 99.7357 23.6898C98.9044 23.9043 98.0149 24.0116 97.0674 24.0116C95.4404 24.0116 94.1621 23.7926 93.2324 23.3546C92.3028 22.9165 91.8379 22.2059 91.8379 21.2226C91.8379 20.8114 91.9228 20.4493 92.0927 20.1365C92.2625 19.8236 92.4547 19.5867 92.6693 19.4258C93.1877 19.7119 93.7733 19.9532 94.4258 20.1499C95.0784 20.3465 95.7533 20.4449 96.4505 20.4449C97.416 20.4449 98.1847 20.284 98.7569 19.9621C99.329 19.6403 99.615 19.1219 99.615 18.4067V17.9776L99.4111 18.0614C98.7181 18.3274 97.8922 18.4604 96.9333 18.4604C96.1287 18.4604 95.3644 18.3397 94.6404 18.0983C93.9163 17.857 93.2816 17.4815 92.7363 16.972C92.191 16.4625 91.753 15.8054 91.4223 15.0009C91.0915 14.1964 90.9261 13.2399 90.9261 12.1314C90.9261 11.0408 91.1004 10.0933 91.4491 9.28876C91.7977 8.48423 92.2804 7.81826 92.8972 7.29085C93.514 6.76344 94.247 6.37011 95.0963 6.11088C95.9455 5.85164 96.8707 5.72202 97.8719 5.72202ZM25.6865 6.13834C27.2809 6.13834 28.5855 6.4961 29.6005 7.21162C30.6154 7.92713 31.2162 9.19095 31.4029 11.0031H27.9964L27.9638 10.8026C27.8866 10.4074 27.7381 10.0465 27.5181 9.71981C27.1448 9.2065 26.5654 8.94985 25.7798 8.94985C24.6599 8.94985 23.8938 9.50593 23.4816 10.6181C23.2639 11.2092 23.155 11.9947 23.155 12.9746C23.155 13.9079 23.2639 14.6584 23.4816 15.2262C23.8783 16.2839 24.6249 16.8127 25.7215 16.8127C26.4992 16.8127 27.0514 16.6028 27.3781 16.1828C27.7047 15.7628 27.9031 15.2184 27.9731 14.5495H31.3679L31.3448 14.7819C31.2322 15.7074 30.8743 16.5866 30.2713 17.4194C29.2291 18.8737 27.6853 19.6009 25.6398 19.6009C23.5944 19.6009 22.0895 18.9943 21.1251 17.781C20.1607 16.5678 19.6785 14.9929 19.6785 13.0563C19.6785 10.8709 20.2113 9.17151 21.2768 7.95824C22.3423 6.74497 23.8122 6.13834 25.6865 6.13834ZM56.5835 6.10334C57.6412 6.10334 58.5939 6.30166 59.4416 6.69831C60.2894 7.09495 60.9893 7.72103 61.5415 8.57654C62.0393 9.33094 62.362 10.2059 62.5098 11.2014C62.5954 11.7847 62.6304 12.6246 62.6148 13.7213H53.912L53.9239 13.9424C54.007 15.1006 54.4035 15.9213 55.1136 16.4044C55.5724 16.7233 56.1246 16.8827 56.7701 16.8827C57.4545 16.8827 58.0106 16.6883 58.4384 16.2994C58.6717 16.0895 58.8778 15.7978 59.0567 15.4245H62.4515L62.4263 15.5988C62.3037 16.2968 61.9193 17.0048 61.2732 17.7227C60.1844 18.9593 58.66 19.5776 56.7001 19.5776C55.0824 19.5776 53.6553 19.0565 52.4187 18.0144C51.1821 16.9722 50.5638 15.2767 50.5638 12.928C50.5638 10.727 51.1218 9.03929 52.2379 7.86491C53.3539 6.69053 54.8025 6.10334 56.5835 6.10334ZM79.9285 1.43121C80.3218 1.43121 80.6749 1.45803 80.9878 1.51166C81.3007 1.5653 81.5644 1.67257 81.7789 1.83347C81.9934 1.99438 82.1588 2.21339 82.275 2.4905C82.3912 2.76762 82.4493 3.12966 82.4493 3.57662V19.1308L82.3593 19.1469C82.1678 19.1809 81.9072 19.2247 81.5778 19.2783C81.1934 19.3409 80.8045 19.3722 80.4112 19.3722C80.0179 19.3722 79.6648 19.3453 79.3519 19.2917C79.039 19.2381 78.7753 19.1308 78.5608 18.9699C78.3463 18.809 78.1809 18.59 78.0647 18.3129C77.9485 18.0358 77.8904 17.6737 77.8904 17.2268V1.67257L77.9804 1.65642C78.1719 1.62249 78.4324 1.57871 78.7619 1.52507C79.1463 1.4625 79.5352 1.43121 79.9285 1.43121ZM86.7816 6.07065C87.1749 6.07065 87.528 6.09747 87.8409 6.1511C88.1538 6.20474 88.4175 6.31201 88.632 6.47291C88.8465 6.63382 89.0119 6.85283 89.1281 7.12994C89.2443 7.40706 89.3024 7.76909 89.3024 8.21605V19.1308L89.2124 19.1469C89.0209 19.1809 88.7603 19.2247 88.4309 19.2783C88.0465 19.3409 87.6576 19.3722 87.2643 19.3722C86.871 19.3722 86.5179 19.3453 86.205 19.2917C85.8921 19.2381 85.6284 19.1308 85.4139 18.9699C85.1994 18.809 85.034 18.59 84.9178 18.3129C84.8016 18.0358 84.7435 17.6737 84.7435 17.2268V6.31201L84.8335 6.29586C85.025 6.26193 85.2856 6.21815 85.615 6.16451C85.9994 6.10194 86.3883 6.07065 86.7816 6.07065ZM108.131 1.43121C108.524 1.43121 108.877 1.45803 109.19 1.51166C109.503 1.5653 109.767 1.67257 109.981 1.83347C110.196 1.99438 110.361 2.21339 110.477 2.4905C110.594 2.76762 110.652 3.12966 110.652 3.57662V6.20474L110.744 6.17059C110.974 6.08944 111.296 5.99802 111.711 5.89634C112.185 5.78013 112.708 5.72202 113.28 5.72202C115.05 5.72202 116.431 6.16451 117.423 7.04949C118.415 7.93447 118.911 9.253 118.911 11.0051V19.1308L118.829 19.1538C118.65 19.1998 118.396 19.2457 118.067 19.2917C117.682 19.3453 117.285 19.3722 116.873 19.3722C116.48 19.3722 116.127 19.3453 115.814 19.2917C115.501 19.2381 115.237 19.1308 115.023 18.9699C114.808 18.809 114.643 18.59 114.527 18.3129C114.411 18.0358 114.352 17.6737 114.352 17.2268V11.2733L114.349 11.108C114.323 10.4625 114.141 10.0035 113.803 9.73125C113.436 9.43625 112.985 9.28876 112.448 9.28876C112.091 9.28876 111.751 9.33345 111.429 9.42284C111.108 9.51224 110.848 9.61951 110.652 9.74466V19.1308L110.569 19.1538C110.39 19.1998 110.136 19.2457 109.807 19.2917C109.423 19.3453 109.025 19.3722 108.614 19.3722C108.22 19.3722 107.867 19.3453 107.554 19.2917C107.241 19.2381 106.978 19.1308 106.763 18.9699C106.549 18.809 106.383 18.59 106.267 18.3129C106.151 18.0358 106.093 17.6737 106.093 17.2268V1.67257L106.183 1.65642C106.374 1.62249 106.635 1.57871 106.964 1.52507C107.349 1.4625 107.737 1.43121 108.131 1.43121ZM76.0253 2.90618L76.0868 3.01009C76.1873 3.1926 76.2786 3.42167 76.3605 3.69729C76.4589 4.02804 76.508 4.3722 76.508 4.72977C76.508 5.42703 76.3605 5.92315 76.0655 6.21815C75.7705 6.51314 75.3728 6.66064 74.8722 6.66064H69.2405V9.69102H75.1135L75.1832 9.79457C75.2962 9.97583 75.3936 10.2006 75.4756 10.4687C75.5739 10.7905 75.623 11.1302 75.623 11.4878C75.623 12.1672 75.4756 12.6544 75.1806 12.9494C74.8856 13.2443 74.4878 13.3918 73.9872 13.3918H69.2941V19.0504L69.203 19.0733C69.007 19.1193 68.729 19.1653 68.3689 19.2113C67.9488 19.2649 67.5331 19.2917 67.1219 19.2917C66.7107 19.2917 66.3486 19.2604 66.0358 19.1978C65.7229 19.1353 65.4592 19.0235 65.2447 18.8626C65.0301 18.7017 64.8692 18.4782 64.7619 18.1922C64.6547 17.9061 64.601 17.5307 64.601 17.0659V5.40021L64.6057 5.21137C64.6398 4.53125 64.8618 3.98633 65.2715 3.57662C65.7184 3.12966 66.3263 2.90618 67.0951 2.90618H76.0253ZM12.9942 1.98524V5.00674H4.37303V8.96152H11.9209V11.948H4.37303V19.1576H0.803223V1.98524H12.9942ZM17.8646 6.44166V19.1576H14.4931V6.44166H17.8646ZM36.2383 2.02023V11.2831L40.3797 6.49999H44.4978L40.0531 11.3647L44.6728 19.1576H40.6597L37.6149 13.7213L36.2383 15.1562V19.1576H32.9718V2.02023H36.2383ZM49.0066 1.9619V19.1576H45.6817V1.9619H49.0066ZM119.16 2.79589C119.717 2.6283 120.668 2.59102 121.782 3.08344C122.906 3.58053 123.607 4.43317 123.885 5.64135L129.919 6.15418C129.994 6.15851 130.068 6.17365 130.142 6.19959C130.253 6.23851 130.312 6.29326 130.362 6.33611C130.485 6.4412 130.525 6.52222 130.583 6.66731C130.687 6.92531 130.655 7.22896 130.52 7.43717C130.302 7.77285 129.961 7.99004 129.496 8.08874L124.625 9.12414L125.485 13.1695C125.584 13.6339 125.801 13.933 126.138 14.0668C126.474 14.2007 126.91 14.2106 127.446 14.0967C127.714 14.0398 127.986 13.9586 128.263 13.8532C128.539 13.7478 128.777 13.6366 128.976 13.5196C129.178 13.6819 129.363 13.8713 129.53 14.0877C129.698 14.3042 129.818 14.5821 129.89 14.9214C130.156 16.1759 128.182 17.3611 126.888 17.5937C125.689 17.809 123.85 17.988 122.798 15.2335C121.747 12.479 120.095 7.86192 118.835 4.01417C118.726 3.68212 118.659 3.35599 118.776 3.08687C118.839 2.94141 118.885 2.87862 119.16 2.79589ZM98.0864 9.28876C97.2104 9.28876 96.5533 9.53458 96.1153 10.0262C95.6773 10.5179 95.4583 11.2196 95.4583 12.1314C95.4583 13.1684 95.6773 13.9148 96.1153 14.3707C96.5533 14.8266 97.112 15.0545 97.7914 15.0545C98.5244 15.0545 99.1055 14.8847 99.5346 14.545V9.61057L99.4525 9.56766C99.3338 9.51045 99.1779 9.45324 98.9848 9.39603C98.7434 9.32451 98.444 9.28876 98.0864 9.28876ZM56.5835 8.84486C55.8135 8.84486 55.2166 9.08596 54.7927 9.56815C54.3689 10.0503 54.1025 10.7036 53.9936 11.528H59.1617C59.1072 10.6492 58.8409 9.9823 58.3625 9.52732C57.8842 9.07234 57.2912 8.84486 56.5835 8.84486ZM17.8646 1.85691V4.92507H14.4931V1.85691H17.8646ZM87.023 0.090332C87.7738 0.090332 88.3772 0.322751 88.8331 0.787589C89.289 1.25243 89.517 1.82453 89.517 2.50391C89.517 3.18329 89.289 3.7554 88.8331 4.22024C88.3772 4.68507 87.7738 4.91749 87.023 4.91749C86.2721 4.91749 85.6687 4.68507 85.2128 4.22024C84.7569 3.7554 84.5289 3.18329 84.5289 2.50391C84.5289 1.82453 84.7569 1.25243 85.2128 0.787589C85.6687 0.322751 86.2721 0.090332 87.023 0.090332Z" fill="url(#paint0_linear_1038_1161)"/>
<defs>
<linearGradient id="paint0_linear_1038_1161" x1="121.217" y1="11.7663" x2="1.99612" y2="23.9016" gradientUnits="userSpaceOnUse">
<stop stop-color="#299BD8"/>
<stop offset="1" stop-color="#1262AF"/>
</linearGradient>
</defs>
</svg>
