<svg width="58" height="74" viewBox="0 0 58 74" fill="none" xmlns="http://www.w3.org/2000/svg">
<g filter="url(#filter0_d_1038_1276)">
<rect x="4.77148" y="0.719391" width="48.8794" height="48.8794" rx="11.9606" fill="#79CA00"/>
<path d="M37.018 16.4579H21.4039C20.3275 16.4579 19.4521 17.3251 19.4521 18.3914V31.9263C19.4521 32.9927 20.3275 33.8599 21.4039 33.8599H37.018C38.0944 33.8599 38.9698 32.9927 38.9698 31.9263V18.3914C38.9698 17.3251 38.0944 16.4579 37.018 16.4579ZM37.019 22.2585C37.018 22.2585 37.018 22.2585 37.019 22.2585H36.5652L33.9625 18.3914H37.018L37.019 22.2585ZM32.6265 28.0592L27.2592 30.9595V25.1589L32.6265 28.0592ZM31.6858 22.2585L29.0831 18.3914H31.6165L34.2192 22.2585H31.6858ZM29.3398 22.2585H26.8064L24.2037 18.3914H26.7371L29.3398 22.2585ZM21.4039 18.3914H21.8577L24.4604 22.2585H21.4039V18.3914Z" fill="white"/>
<path d="M11.3523 57.6073H12.3762L14.9878 64.1063L17.594 57.6073H18.6233L15.382 65.5791H14.5827L11.3523 57.6073ZM11.0184 57.6073H11.9217L12.0696 62.4692V65.5791H11.0184V57.6073ZM18.0484 57.6073H18.9518V65.5791H17.9006V62.4692L18.0484 57.6073ZM20.8348 62.6828V62.5568C20.8348 62.1298 20.8969 61.7337 21.021 61.3687C21.1451 61.0001 21.324 60.6807 21.5576 60.4106C21.7912 60.1368 22.0741 59.9251 22.4062 59.7754C22.7384 59.6221 23.1107 59.5455 23.5231 59.5455C23.9393 59.5455 24.3134 59.6221 24.6455 59.7754C24.9814 59.9251 25.2661 60.1368 25.4997 60.4106C25.7369 60.6807 25.9176 61.0001 26.0417 61.3687C26.1658 61.7337 26.2279 62.1298 26.2279 62.5568V62.6828C26.2279 63.1098 26.1658 63.5058 26.0417 63.8709C25.9176 64.2359 25.7369 64.5552 25.4997 64.829C25.2661 65.0991 24.9832 65.3108 24.651 65.4641C24.3225 65.6138 23.9502 65.6886 23.5341 65.6886C23.118 65.6886 22.7438 65.6138 22.4117 65.4641C22.0795 65.3108 21.7948 65.0991 21.5576 64.829C21.324 64.5552 21.1451 64.2359 21.021 63.8709C20.8969 63.5058 20.8348 63.1098 20.8348 62.6828ZM21.8477 62.5568V62.6828C21.8477 62.9784 21.8824 63.2576 21.9518 63.5204C22.0211 63.7796 22.1252 64.0096 22.2639 64.2103C22.4062 64.4111 22.5832 64.5699 22.7949 64.6867C23.0067 64.7998 23.253 64.8564 23.5341 64.8564C23.8115 64.8564 24.0542 64.7998 24.2623 64.6867C24.474 64.5699 24.6492 64.4111 24.7879 64.2103C24.9266 64.0096 25.0306 63.7796 25.1 63.5204C25.173 63.2576 25.2095 62.9784 25.2095 62.6828V62.5568C25.2095 62.2648 25.173 61.9892 25.1 61.7301C25.0306 61.4673 24.9248 61.2355 24.7824 61.0347C24.6437 60.8303 24.4685 60.6697 24.2568 60.5529C24.0488 60.4361 23.8042 60.3777 23.5231 60.3777C23.2457 60.3777 23.0012 60.4361 22.7895 60.5529C22.5814 60.6697 22.4062 60.8303 22.2639 61.0347C22.1252 61.2355 22.0211 61.4673 21.9518 61.7301C21.8824 61.9892 21.8477 62.2648 21.8477 62.5568ZM29.6603 64.6648L31.281 59.655H32.3158L30.186 65.5791H29.507L29.6603 64.6648ZM28.308 59.655L29.9779 64.6921L30.0929 65.5791H29.414L27.2677 59.655H28.308ZM34.8394 59.655V65.5791H33.821V59.655H34.8394ZM33.7444 58.0836C33.7444 57.9194 33.7936 57.7807 33.8922 57.6675C33.9944 57.5544 34.144 57.4978 34.3411 57.4978C34.5346 57.4978 34.6824 57.5544 34.7846 57.6675C34.8905 57.7807 34.9434 57.9194 34.9434 58.0836C34.9434 58.2406 34.8905 58.3756 34.7846 58.4888C34.6824 58.5983 34.5346 58.653 34.3411 58.653C34.144 58.653 33.9944 58.5983 33.8922 58.4888C33.7936 58.3756 33.7444 58.2406 33.7444 58.0836ZM39.3724 65.6886C38.9599 65.6886 38.5858 65.6193 38.25 65.4805C37.9178 65.3382 37.6313 65.1393 37.3904 64.8838C37.1531 64.6283 36.9706 64.3253 36.8429 63.9749C36.7151 63.6245 36.6512 63.2412 36.6512 62.8251V62.5951C36.6512 62.1133 36.7224 61.6844 36.8648 61.3085C37.0071 60.9289 37.2006 60.6077 37.4451 60.3449C37.6897 60.0821 37.9671 59.8831 38.2773 59.7481C38.5876 59.613 38.9088 59.5455 39.241 59.5455C39.6644 59.5455 40.0294 59.6185 40.336 59.7645C40.6463 59.9105 40.8999 60.1149 41.097 60.3777C41.2941 60.6369 41.4401 60.9435 41.5351 61.2975C41.63 61.6479 41.6774 62.0312 41.6774 62.4473V62.9018H37.2535V62.075H40.6645V61.9984C40.6499 61.7356 40.5952 61.48 40.5002 61.2318C40.409 60.9836 40.263 60.7792 40.0622 60.6186C39.8615 60.458 39.5877 60.3777 39.241 60.3777C39.011 60.3777 38.7993 60.427 38.6058 60.5255C38.4124 60.6204 38.2463 60.7628 38.1076 60.9526C37.9689 61.1424 37.8612 61.3742 37.7846 61.6479C37.7079 61.9217 37.6696 62.2374 37.6696 62.5951V62.8251C37.6696 63.1062 37.7079 63.3708 37.7846 63.619C37.8649 63.8636 37.9799 64.0789 38.1295 64.2651C38.2828 64.4512 38.4671 64.5972 38.6825 64.7031C38.9015 64.8089 39.1497 64.8619 39.4271 64.8619C39.7848 64.8619 40.0878 64.7889 40.336 64.6429C40.5842 64.4968 40.8014 64.3016 40.9875 64.057L41.6008 64.5443C41.473 64.7378 41.3106 64.9221 41.1135 65.0973C40.9164 65.2725 40.6736 65.4148 40.3853 65.5244C40.1006 65.6339 39.7629 65.6886 39.3724 65.6886ZM46.7579 64.0077C46.7579 63.8617 46.725 63.7267 46.6593 63.6026C46.5973 63.4748 46.4677 63.3598 46.2706 63.2576C46.0772 63.1518 45.7851 63.0605 45.3946 62.9839C45.0661 62.9145 44.7686 62.8324 44.5021 62.7375C44.2393 62.6426 44.0149 62.5276 43.8287 62.3926C43.6462 62.2575 43.5057 62.0987 43.4071 61.9162C43.3086 61.7337 43.2593 61.5202 43.2593 61.2756C43.2593 61.042 43.3104 60.8212 43.4126 60.6131C43.5184 60.4051 43.6663 60.2208 43.8561 60.0602C44.0495 59.8996 44.2813 59.7736 44.5514 59.6824C44.8215 59.5911 45.1227 59.5455 45.4548 59.5455C45.9293 59.5455 46.3345 59.6294 46.6703 59.7973C47.0061 59.9653 47.2634 60.1897 47.4423 60.4708C47.6211 60.7482 47.7106 61.0566 47.7106 61.3961H46.6977C46.6977 61.2318 46.6484 61.0731 46.5498 60.9198C46.4549 60.7628 46.3144 60.6332 46.1283 60.531C45.9458 60.4288 45.7213 60.3777 45.4548 60.3777C45.1738 60.3777 44.9456 60.4215 44.7704 60.5091C44.5989 60.5931 44.4729 60.7007 44.3926 60.8322C44.316 60.9636 44.2777 61.1023 44.2777 61.2483C44.2777 61.3578 44.2959 61.4563 44.3324 61.5439C44.3726 61.6279 44.4419 61.7063 44.5405 61.7794C44.639 61.8487 44.7777 61.9144 44.9566 61.9765C45.1354 62.0385 45.3636 62.1006 45.641 62.1626C46.1264 62.2721 46.5261 62.4035 46.84 62.5568C47.1539 62.7101 47.3875 62.8981 47.5408 63.1208C47.6941 63.3434 47.7708 63.6135 47.7708 63.9311C47.7708 64.1902 47.7161 64.4275 47.6065 64.6429C47.5007 64.8582 47.3456 65.0444 47.1412 65.2013C46.9404 65.3546 46.6995 65.4751 46.4184 65.5627C46.141 65.6466 45.829 65.6886 45.4822 65.6886C44.9602 65.6886 44.5186 65.5955 44.1572 65.4094C43.7958 65.2232 43.5221 64.9823 43.3359 64.6867C43.1498 64.391 43.0567 64.0789 43.0567 63.7504H44.0751C44.0897 64.0278 44.17 64.2486 44.316 64.4129C44.462 64.5735 44.6408 64.6885 44.8525 64.7578C45.0643 64.8235 45.2741 64.8564 45.4822 64.8564C45.7596 64.8564 45.9914 64.8199 46.1775 64.7469C46.3673 64.6739 46.5115 64.5735 46.6101 64.4457C46.7086 64.318 46.7579 64.172 46.7579 64.0077Z" fill="#8E8E94"/>
</g>
<defs>
<filter id="filter0_d_1038_1276" x="0.771484" y="0.719391" width="56.8794" height="76.3154" filterUnits="userSpaceOnUse" color-interpolation-filters="sRGB">
<feFlood flood-opacity="0" result="BackgroundImageFix"/>
<feColorMatrix in="SourceAlpha" type="matrix" values="0 0 0 0 0 0 0 0 0 0 0 0 0 0 0 0 0 0 127 0" result="hardAlpha"/>
<feOffset dy="4"/>
<feGaussianBlur stdDeviation="2"/>
<feComposite in2="hardAlpha" operator="out"/>
<feColorMatrix type="matrix" values="0 0 0 0 0 0 0 0 0 0 0 0 0 0 0 0 0 0 0.25 0"/>
<feBlend mode="normal" in2="BackgroundImageFix" result="effect1_dropShadow_1038_1276"/>
<feBlend mode="normal" in="SourceGraphic" in2="effect1_dropShadow_1038_1276" result="shape"/>
</filter>
</defs>
</svg>
