<svg width="53" height="69" viewBox="0 0 53 69" fill="none" xmlns="http://www.w3.org/2000/svg">
<rect x="0.563477" y="0.719391" width="52.3278" height="48.8794" rx="11.9606" fill="#4DABFF"/>
<path d="M34.8794 18.4844C34.6438 17.8412 33.9841 17.3833 33.2066 17.3833H30.2614V16.2931C30.2614 15.6935 29.7313 15.203 29.0833 15.203H24.3711C23.7231 15.203 23.193 15.6935 23.193 16.2931V17.3833H20.2478C19.4703 17.3833 18.8224 17.8412 18.575 18.4844L16.2542 24.6656C16.1717 24.8945 16.1246 25.1343 16.1246 25.3851V33.1906C16.1246 34.0955 16.9139 34.8259 17.8917 34.8259C18.8695 34.8259 19.6588 34.0955 19.6588 33.1906V32.6456H33.7956V33.1906C33.7956 34.0846 34.5849 34.8259 35.5627 34.8259C36.5287 34.8259 37.3298 34.0955 37.3298 33.1906V25.3851C37.3298 25.1452 37.2827 24.8945 37.2002 24.6656L34.8794 18.4844ZM20.2478 29.3751C19.27 29.3751 18.4807 28.6447 18.4807 27.7398C18.4807 26.835 19.27 26.1046 20.2478 26.1046C21.2256 26.1046 22.0149 26.835 22.0149 27.7398C22.0149 28.6447 21.2256 29.3751 20.2478 29.3751ZM33.2066 29.3751C32.2288 29.3751 31.4395 28.6447 31.4395 27.7398C31.4395 26.835 32.2288 26.1046 33.2066 26.1046C34.1844 26.1046 34.9737 26.835 34.9737 27.7398C34.9737 28.6447 34.1844 29.3751 33.2066 29.3751ZM18.4807 23.9243L20.2478 19.0185H33.2066L34.9737 23.9243H18.4807Z" fill="white"/>
<path d="M19.698 57.6073V65.5791H18.6577V57.6073H19.698ZM22.2603 57.6073V58.4724H16.1008V57.6073H22.2603ZM26.6071 64.5662V61.5165C26.6071 61.2829 26.5597 61.0804 26.4648 60.9088C26.3735 60.7336 26.2348 60.5985 26.0487 60.5036C25.8625 60.4087 25.6326 60.3613 25.3588 60.3613C25.1033 60.3613 24.8788 60.4051 24.6854 60.4927C24.4956 60.5803 24.3459 60.6953 24.2364 60.8376C24.1306 60.98 24.0776 61.1333 24.0776 61.2975H23.0647C23.0647 61.0858 23.1195 60.876 23.229 60.6679C23.3385 60.4598 23.4954 60.2719 23.6998 60.104C23.9079 59.9324 24.1561 59.7973 24.4445 59.6988C24.7365 59.5966 25.0613 59.5455 25.419 59.5455C25.8498 59.5455 26.2294 59.6185 26.5579 59.7645C26.89 59.9105 27.1492 60.1313 27.3353 60.427C27.5251 60.719 27.62 61.0858 27.62 61.5275V64.287C27.62 64.4841 27.6365 64.694 27.6693 64.9166C27.7058 65.1393 27.7588 65.3309 27.8281 65.4915V65.5791H26.7714C26.7203 65.4623 26.6801 65.3072 26.6509 65.1137C26.6217 64.9166 26.6071 64.7341 26.6071 64.5662ZM26.7824 61.9874L26.7933 62.6992H25.7695C25.4811 62.6992 25.2238 62.7229 24.9975 62.7704C24.7711 62.8142 24.5813 62.8817 24.428 62.9729C24.2747 63.0642 24.1579 63.1792 24.0776 63.3179C23.9973 63.4529 23.9572 63.6117 23.9572 63.7942C23.9572 63.9804 23.9992 64.1501 24.0831 64.3034C24.1671 64.4567 24.293 64.579 24.4609 64.6702C24.6324 64.7578 24.8423 64.8016 25.0905 64.8016C25.4008 64.8016 25.6745 64.7359 25.9118 64.6045C26.1491 64.4731 26.337 64.3125 26.4757 64.1227C26.6181 63.9329 26.6948 63.7486 26.7057 63.5697L27.1382 64.057C27.1127 64.2103 27.0433 64.38 26.9302 64.5662C26.817 64.7524 26.6655 64.9312 26.4757 65.1028C26.2896 65.2707 26.0669 65.4112 25.8078 65.5244C25.5523 65.6339 25.2639 65.6886 24.9427 65.6886C24.5412 65.6886 24.189 65.6101 23.886 65.4532C23.5867 65.2962 23.3531 65.0863 23.1852 64.8235C23.0209 64.5571 22.9388 64.2596 22.9388 63.9311C22.9388 63.6135 23.0009 63.3343 23.125 63.0934C23.2491 62.8488 23.4279 62.6462 23.6615 62.4856C23.8951 62.3214 24.1762 62.1973 24.5047 62.1133C24.8332 62.0294 25.2 61.9874 25.6052 61.9874H26.7824ZM30.3462 59.655L31.6438 61.8122L32.9579 59.655H34.146L32.2078 62.5787L34.2062 65.5791H33.0345L31.6657 63.3562L30.297 65.5791H29.1198L31.1128 62.5787L29.18 59.655H30.3462ZM36.7736 59.655V65.5791H35.7552V59.655H36.7736ZM35.6786 58.0836C35.6786 57.9194 35.7279 57.7807 35.8264 57.6675C35.9286 57.5544 36.0783 57.4978 36.2754 57.4978C36.4688 57.4978 36.6167 57.5544 36.7189 57.6675C36.8247 57.7807 36.8776 57.9194 36.8776 58.0836C36.8776 58.2406 36.8247 58.3756 36.7189 58.4888C36.6167 58.5983 36.4688 58.653 36.2754 58.653C36.0783 58.653 35.9286 58.5983 35.8264 58.4888C35.7279 58.3756 35.6786 58.2406 35.6786 58.0836Z" fill="#8E8E94"/>
</svg>
