<svg width="61" height="70" viewBox="0 0 61 70" fill="none" xmlns="http://www.w3.org/2000/svg">
<rect x="6.3743" y="0.719391" width="48.8794" height="48.8794" rx="11.9606" fill="#FF9B53"/>
<path d="M35.0045 14.207C34.5119 13.7194 33.8441 13.4454 33.1477 13.4454C32.4514 13.4454 31.7836 13.7194 31.291 14.207L19.7583 25.6332C19.5144 25.8748 19.321 26.1617 19.189 26.4774C19.057 26.7931 18.989 27.1315 18.989 27.4732C18.989 27.8149 19.057 28.1533 19.189 28.469C19.321 28.7847 19.5144 29.0715 19.7583 29.3132L21.1265 30.6674C21.7219 31.2584 22.5589 31.1531 23.0644 30.8548C23.3432 30.6908 23.6693 30.6234 23.991 30.6634C24.3128 30.7034 24.612 30.8484 24.8413 31.0756C25.0706 31.3027 25.217 31.5991 25.2573 31.9179C25.2977 32.2366 25.2297 32.5596 25.0641 32.8358C24.7641 33.3366 24.6567 34.1658 25.2533 34.7556L26.6226 36.111C26.8665 36.3527 27.1561 36.5443 27.4748 36.6751C27.7934 36.8059 28.135 36.8732 28.4799 36.8732C28.8249 36.8732 29.1664 36.8059 29.4851 36.6751C29.8038 36.5443 30.0933 36.3527 30.3372 36.111L41.8687 24.6872C42.1126 24.4456 42.3061 24.1587 42.4381 23.843C42.5701 23.5273 42.6381 23.1889 42.6381 22.8472C42.6381 22.5055 42.5701 22.1671 42.4381 21.8514C42.3061 21.5357 42.1126 21.2488 41.8687 21.0072L40.5017 19.6518C39.9064 19.062 39.0682 19.1661 38.5627 19.4645C38.2839 19.6285 37.9578 19.6958 37.6361 19.6558C37.3143 19.6158 37.0151 19.4708 36.7858 19.2436C36.5565 19.0165 36.4101 18.7201 36.3698 18.4014C36.3294 18.0826 36.3974 17.7596 36.5629 17.4834C36.8641 16.9826 36.9704 16.1534 36.3738 15.5636L35.0056 14.207H35.0045Z" fill="white"/>
<path d="M5.00636 58.3136L2.36734 65.5791H1.28874L4.32744 57.6073H5.02278L5.00636 58.3136ZM7.21832 65.5791L4.57382 58.3136L4.5574 57.6073H5.25274L8.3024 65.5791H7.21832ZM7.08144 62.628V63.4931H2.60277V62.628H7.08144ZM12.047 59.655V60.4325H8.844V59.655H12.047ZM9.92808 58.215H10.941V64.1118C10.941 64.3125 10.972 64.464 11.0341 64.5662C11.0961 64.6684 11.1764 64.7359 11.275 64.7688C11.3735 64.8016 11.4794 64.8181 11.5925 64.8181C11.6765 64.8181 11.7641 64.8108 11.8553 64.7962C11.9502 64.7779 12.0214 64.7633 12.0689 64.7524L12.0743 65.5791C11.994 65.6047 11.8882 65.6284 11.7568 65.6503C11.629 65.6758 11.4739 65.6886 11.2914 65.6886C11.0432 65.6886 10.815 65.6393 10.607 65.5408C10.3989 65.4422 10.2329 65.278 10.1088 65.048C9.9883 64.8144 9.92808 64.5005 9.92808 64.1063V58.215ZM16.1638 59.655V60.4325H12.9609V59.655H16.1638ZM14.0449 58.215H15.0578V64.1118C15.0578 64.3125 15.0889 64.464 15.1509 64.5662C15.213 64.6684 15.2933 64.7359 15.3918 64.7688C15.4904 64.8016 15.5962 64.8181 15.7094 64.8181C15.7933 64.8181 15.8809 64.8108 15.9722 64.7962C16.0671 64.7779 16.1383 64.7633 16.1857 64.7524L16.1912 65.5791C16.1109 65.6047 16.005 65.6284 15.8736 65.6503C15.7459 65.6758 15.5908 65.6886 15.4083 65.6886C15.16 65.6886 14.9319 65.6393 14.7239 65.5408C14.5158 65.4422 14.3497 65.278 14.2256 65.048C14.1052 64.8144 14.0449 64.5005 14.0449 64.1063V58.215ZM18.8134 60.5858V65.5791H17.8005V59.655H18.786L18.8134 60.5858ZM20.664 59.6221L20.6585 60.5639C20.5745 60.5456 20.4942 60.5347 20.4176 60.531C20.3446 60.5237 20.2606 60.5201 20.1657 60.5201C19.9321 60.5201 19.7259 60.5566 19.547 60.6296C19.3682 60.7026 19.2167 60.8048 19.0926 60.9362C18.9685 61.0676 18.8699 61.2245 18.7969 61.407C18.7276 61.5859 18.682 61.783 18.6601 61.9984L18.3753 62.1626C18.3753 61.8049 18.41 61.4691 18.4794 61.1552C18.5524 60.8413 18.6637 60.5639 18.8134 60.323C18.963 60.0784 19.1528 59.8886 19.3828 59.7535C19.6164 59.6148 19.8938 59.5455 20.215 59.5455C20.288 59.5455 20.3719 59.5546 20.4669 59.5729C20.5618 59.5875 20.6275 59.6039 20.664 59.6221ZM25.3229 64.5662V61.5165C25.3229 61.2829 25.2754 61.0804 25.1805 60.9088C25.0893 60.7336 24.9506 60.5985 24.7644 60.5036C24.5782 60.4087 24.3483 60.3613 24.0745 60.3613C23.819 60.3613 23.5945 60.4051 23.4011 60.4927C23.2113 60.5803 23.0616 60.6953 22.9521 60.8376C22.8463 60.98 22.7933 61.1333 22.7933 61.2975H21.7804C21.7804 61.0858 21.8352 60.876 21.9447 60.6679C22.0542 60.4598 22.2112 60.2719 22.4156 60.104C22.6236 59.9324 22.8718 59.7973 23.1602 59.6988C23.4522 59.5966 23.777 59.5455 24.1348 59.5455C24.5655 59.5455 24.9451 59.6185 25.2736 59.7645C25.6057 59.9105 25.8649 60.1313 26.0511 60.427C26.2409 60.719 26.3358 61.0858 26.3358 61.5275V64.287C26.3358 64.4841 26.3522 64.694 26.385 64.9166C26.4215 65.1393 26.4745 65.3309 26.5438 65.4915V65.5791H25.4871C25.436 65.4623 25.3959 65.3072 25.3667 65.1137C25.3375 64.9166 25.3229 64.7341 25.3229 64.5662ZM25.4981 61.9874L25.509 62.6992H24.4852C24.1968 62.6992 23.9395 62.7229 23.7132 62.7704C23.4869 62.8142 23.2971 62.8817 23.1438 62.9729C22.9905 63.0642 22.8737 63.1792 22.7933 63.3179C22.713 63.4529 22.6729 63.6117 22.6729 63.7942C22.6729 63.9804 22.7149 64.1501 22.7988 64.3034C22.8828 64.4567 23.0087 64.579 23.1766 64.6702C23.3482 64.7578 23.558 64.8016 23.8063 64.8016C24.1165 64.8016 24.3903 64.7359 24.6275 64.6045C24.8648 64.4731 25.0528 64.3125 25.1915 64.1227C25.3338 63.9329 25.4105 63.7486 25.4214 63.5697L25.854 64.057C25.8284 64.2103 25.7591 64.38 25.6459 64.5662C25.5327 64.7524 25.3813 64.9312 25.1915 65.1028C25.0053 65.2707 24.7827 65.4112 24.5235 65.5244C24.268 65.6339 23.9796 65.6886 23.6584 65.6886C23.2569 65.6886 22.9047 65.6101 22.6017 65.4532C22.3024 65.2962 22.0688 65.0863 21.9009 64.8235C21.7366 64.5571 21.6545 64.2596 21.6545 63.9311C21.6545 63.6135 21.7166 63.3343 21.8407 63.0934C21.9648 62.8488 22.1436 62.6462 22.3772 62.4856C22.6108 62.3214 22.8919 62.1973 23.2204 62.1133C23.5489 62.0294 23.9158 61.9874 24.3209 61.9874H25.4981ZM30.7483 64.8564C30.9892 64.8564 31.2119 64.8071 31.4163 64.7086C31.6207 64.61 31.7886 64.4749 31.92 64.3034C32.0514 64.1282 32.1262 63.9293 32.1445 63.7066H33.1081C33.0898 64.057 32.9712 64.3837 32.7522 64.6867C32.5368 64.986 32.254 65.2287 31.9036 65.4148C31.5531 65.5974 31.1681 65.6886 30.7483 65.6886C30.303 65.6886 29.9142 65.6101 29.5821 65.4532C29.2536 65.2962 28.9798 65.0809 28.7608 64.8071C28.5455 64.5333 28.383 64.2194 28.2735 63.8654C28.1677 63.5077 28.1148 63.1299 28.1148 62.732V62.5021C28.1148 62.1042 28.1677 61.7283 28.2735 61.3742C28.383 61.0165 28.5455 60.7007 28.7608 60.427C28.9798 60.1532 29.2536 59.9379 29.5821 59.7809C29.9142 59.624 30.303 59.5455 30.7483 59.5455C31.2119 59.5455 31.617 59.6404 31.9638 59.8302C32.3105 60.0164 32.5825 60.2719 32.7796 60.5967C32.9803 60.9179 33.0898 61.2829 33.1081 61.6917H32.1445C32.1262 61.4472 32.0569 61.2264 31.9364 61.0293C31.8196 60.8322 31.659 60.6752 31.4546 60.5584C31.2538 60.4379 31.0184 60.3777 30.7483 60.3777C30.438 60.3777 30.1771 60.4398 29.9653 60.5639C29.7573 60.6843 29.5912 60.8486 29.4671 61.0566C29.3467 61.261 29.2591 61.4892 29.2043 61.741C29.1532 61.9892 29.1277 62.2429 29.1277 62.5021V62.732C29.1277 62.9912 29.1532 63.2467 29.2043 63.4985C29.2554 63.7504 29.3412 63.9785 29.4616 64.1829C29.5857 64.3873 29.7518 64.5516 29.9599 64.6757C30.1716 64.7962 30.4344 64.8564 30.7483 64.8564ZM37.1757 59.655V60.4325H33.9727V59.655H37.1757ZM35.0568 58.215H36.0697V64.1118C36.0697 64.3125 36.1007 64.464 36.1628 64.5662C36.2248 64.6684 36.3051 64.7359 36.4037 64.7688C36.5022 64.8016 36.6081 64.8181 36.7212 64.8181C36.8052 64.8181 36.8928 64.8108 36.984 64.7962C37.0789 64.7779 37.1501 64.7633 37.1976 64.7524L37.2031 65.5791C37.1227 65.6047 37.0169 65.6284 36.8855 65.6503C36.7577 65.6758 36.6026 65.6886 36.4201 65.6886C36.1719 65.6886 35.9438 65.6393 35.7357 65.5408C35.5277 65.4422 35.3616 65.278 35.2375 65.048C35.117 64.8144 35.0568 64.5005 35.0568 64.1063V58.215ZM39.9128 59.655V65.5791H38.8944V59.655H39.9128ZM38.8178 58.0836C38.8178 57.9194 38.8671 57.7807 38.9656 57.6675C39.0678 57.5544 39.2175 57.4978 39.4146 57.4978C39.608 57.4978 39.7559 57.5544 39.8581 57.6675C39.9639 57.7807 40.0168 57.9194 40.0168 58.0836C40.0168 58.2406 39.9639 58.3756 39.8581 58.4888C39.7559 58.5983 39.608 58.653 39.4146 58.653C39.2175 58.653 39.0678 58.5983 38.9656 58.4888C38.8671 58.3756 38.8178 58.2406 38.8178 58.0836ZM41.7192 62.6828V62.5568C41.7192 62.1298 41.7812 61.7337 41.9053 61.3687C42.0294 61.0001 42.2083 60.6807 42.4419 60.4106C42.6755 60.1368 42.9584 59.9251 43.2905 59.7754C43.6227 59.6221 43.995 59.5455 44.4075 59.5455C44.8236 59.5455 45.1977 59.6221 45.5299 59.7754C45.8657 59.9251 46.1504 60.1368 46.384 60.4106C46.6212 60.6807 46.8019 61.0001 46.926 61.3687C47.0501 61.7337 47.1122 62.1298 47.1122 62.5568V62.6828C47.1122 63.1098 47.0501 63.5058 46.926 63.8709C46.8019 64.2359 46.6212 64.5552 46.384 64.829C46.1504 65.0991 45.8675 65.3108 45.5353 65.4641C45.2068 65.6138 44.8345 65.6886 44.4184 65.6886C44.0023 65.6886 43.6282 65.6138 43.296 65.4641C42.9639 65.3108 42.6791 65.0991 42.4419 64.829C42.2083 64.5552 42.0294 64.2359 41.9053 63.8709C41.7812 63.5058 41.7192 63.1098 41.7192 62.6828ZM42.7321 62.5568V62.6828C42.7321 62.9784 42.7667 63.2576 42.8361 63.5204C42.9054 63.7796 43.0095 64.0096 43.1482 64.2103C43.2905 64.4111 43.4676 64.5699 43.6793 64.6867C43.891 64.7998 44.1374 64.8564 44.4184 64.8564C44.6958 64.8564 44.9386 64.7998 45.1466 64.6867C45.3583 64.5699 45.5335 64.4111 45.6722 64.2103C45.8109 64.0096 45.915 63.7796 45.9843 63.5204C46.0573 63.2576 46.0938 62.9784 46.0938 62.6828V62.5568C46.0938 62.2648 46.0573 61.9892 45.9843 61.7301C45.915 61.4673 45.8091 61.2355 45.6667 61.0347C45.528 60.8303 45.3528 60.6697 45.1411 60.5529C44.9331 60.4361 44.6885 60.3777 44.4075 60.3777C44.1301 60.3777 43.8855 60.4361 43.6738 60.5529C43.4657 60.6697 43.2905 60.8303 43.1482 61.0347C43.0095 61.2355 42.9054 61.4673 42.8361 61.7301C42.7667 61.9892 42.7321 62.2648 42.7321 62.5568ZM49.8438 60.9198V65.5791H48.8309V59.655H49.7891L49.8438 60.9198ZM49.6029 62.3926L49.1813 62.3761C49.185 61.971 49.2452 61.5968 49.362 61.2537C49.4788 60.907 49.6431 60.6058 49.8548 60.3503C50.0665 60.0948 50.3184 59.8977 50.6104 59.759C50.906 59.6167 51.2327 59.5455 51.5904 59.5455C51.8824 59.5455 52.1452 59.5856 52.3788 59.6659C52.6124 59.7426 52.8114 59.8667 52.9756 60.0383C53.1435 60.2098 53.2713 60.4325 53.3589 60.7062C53.4465 60.9763 53.4903 61.3067 53.4903 61.6972V65.5791H52.4719V61.6863C52.4719 61.376 52.4263 61.1278 52.335 60.9417C52.2438 60.7518 52.1106 60.615 51.9353 60.531C51.7601 60.4434 51.5448 60.3996 51.2893 60.3996C51.0374 60.3996 50.8075 60.4525 50.5994 60.5584C50.395 60.6642 50.218 60.8103 50.0683 60.9964C49.9223 61.1826 49.8073 61.3961 49.7234 61.637C49.6431 61.8743 49.6029 62.1261 49.6029 62.3926ZM58.9267 64.0077C58.9267 63.8617 58.8938 63.7267 58.8281 63.6026C58.7661 63.4748 58.6365 63.3598 58.4394 63.2576C58.2459 63.1518 57.9539 63.0605 57.5634 62.9839C57.2349 62.9145 56.9374 62.8324 56.6709 62.7375C56.4081 62.6426 56.1836 62.5276 55.9975 62.3926C55.815 62.2575 55.6744 62.0987 55.5759 61.9162C55.4773 61.7337 55.4281 61.5202 55.4281 61.2756C55.4281 61.042 55.4792 60.8212 55.5814 60.6131C55.6872 60.4051 55.835 60.2208 56.0248 60.0602C56.2183 59.8996 56.4501 59.7736 56.7202 59.6824C56.9903 59.5911 57.2914 59.5455 57.6236 59.5455C58.0981 59.5455 58.5033 59.6294 58.8391 59.7973C59.1749 59.9653 59.4322 60.1897 59.6111 60.4708C59.7899 60.7482 59.8793 61.0566 59.8793 61.3961H58.8664C58.8664 61.2318 58.8172 61.0731 58.7186 60.9198C58.6237 60.7628 58.4832 60.6332 58.297 60.531C58.1145 60.4288 57.89 60.3777 57.6236 60.3777C57.3425 60.3777 57.1144 60.4215 56.9392 60.5091C56.7676 60.5931 56.6417 60.7007 56.5614 60.8322C56.4848 60.9636 56.4464 61.1023 56.4464 61.2483C56.4464 61.3578 56.4647 61.4563 56.5012 61.5439C56.5413 61.6279 56.6107 61.7063 56.7092 61.7794C56.8078 61.8487 56.9465 61.9144 57.1254 61.9765C57.3042 62.0385 57.5323 62.1006 57.8097 62.1626C58.2952 62.2721 58.6949 62.4035 59.0088 62.5568C59.3227 62.7101 59.5563 62.8981 59.7096 63.1208C59.8629 63.3434 59.9396 63.6135 59.9396 63.9311C59.9396 64.1902 59.8848 64.4275 59.7753 64.6429C59.6695 64.8582 59.5143 65.0444 59.3099 65.2013C59.1092 65.3546 58.8683 65.4751 58.5872 65.5627C58.3098 65.6466 57.9977 65.6886 57.651 65.6886C57.129 65.6886 56.6873 65.5955 56.326 65.4094C55.9646 65.2232 55.6909 64.9823 55.5047 64.6867C55.3186 64.391 55.2255 64.0789 55.2255 63.7504H56.2439C56.2585 64.0278 56.3388 64.2486 56.4848 64.4129C56.6308 64.5735 56.8096 64.6885 57.0213 64.7578C57.233 64.8235 57.4429 64.8564 57.651 64.8564C57.9284 64.8564 58.1602 64.8199 58.3463 64.7469C58.5361 64.6739 58.6803 64.5735 58.7788 64.4457C58.8774 64.318 58.9267 64.172 58.9267 64.0077Z" fill="#8E8E94"/>
</svg>
