<svg width="53" height="70" viewBox="0 0 53 70" fill="none" xmlns="http://www.w3.org/2000/svg">
<rect x="2.07967" y="0.719391" width="48.8794" height="48.8794" rx="11.9606" fill="#FDBF00"/>
<path d="M16.4581 31.1194C16.4581 32.2158 16.9486 33.2001 17.7158 33.8853V35.4801C17.7158 36.5142 18.5584 37.3489 19.6022 37.3489C20.6461 37.3489 21.4887 36.5142 21.4887 35.4801V34.8571H31.5497V35.4801C31.5497 36.5017 32.3924 37.3489 33.4362 37.3489C34.4675 37.3489 35.3227 36.5142 35.3227 35.4801V33.8853C36.0898 33.2001 36.5803 32.2158 36.5803 31.1194V18.6605C36.5803 14.2998 32.078 13.6769 26.5192 13.6769C20.9605 13.6769 16.4581 14.2998 16.4581 18.6605V31.1194ZM20.8599 32.3653C19.816 32.3653 18.9734 31.5306 18.9734 30.4965C18.9734 29.4624 19.816 28.6277 20.8599 28.6277C21.9037 28.6277 22.7463 29.4624 22.7463 30.4965C22.7463 31.5306 21.9037 32.3653 20.8599 32.3653ZM32.1786 32.3653C31.1347 32.3653 30.2921 31.5306 30.2921 30.4965C30.2921 29.4624 31.1347 28.6277 32.1786 28.6277C33.2224 28.6277 34.065 29.4624 34.065 30.4965C34.065 31.5306 33.2224 32.3653 32.1786 32.3653ZM34.065 24.89H18.9734V18.6605H34.065V24.89Z" fill="white"/>
<path d="M6.32832 63.0441H7.37955C7.3248 63.5478 7.18062 63.9986 6.94701 64.3965C6.71341 64.7943 6.38307 65.1101 5.95601 65.3437C5.52895 65.5736 4.99604 65.6886 4.35727 65.6886C3.89006 65.6886 3.46482 65.601 3.08156 65.4258C2.70195 65.2506 2.37527 65.0024 2.10151 64.6812C1.82775 64.3563 1.61605 63.9676 1.46639 63.515C1.32039 63.0587 1.24739 62.5513 1.24739 61.9929V61.199C1.24739 60.6405 1.32039 60.135 1.46639 59.6824C1.61605 59.2261 1.82958 58.8355 2.10699 58.5107C2.38804 58.1858 2.72568 57.9358 3.11989 57.7606C3.5141 57.5854 3.95758 57.4978 4.45035 57.4978C5.05261 57.4978 5.5618 57.6109 5.97791 57.8372C6.39402 58.0636 6.71706 58.3775 6.94701 58.779C7.18062 59.1768 7.3248 59.6386 7.37955 60.1642H6.32832C6.27722 59.7919 6.18232 59.4725 6.04361 59.206C5.90491 58.9359 5.7078 58.7279 5.4523 58.5819C5.19679 58.4359 4.86281 58.3629 4.45035 58.3629C4.09629 58.3629 3.7842 58.4304 3.5141 58.5654C3.24764 58.7005 3.02316 58.8921 2.84065 59.1403C2.6618 59.3885 2.52675 59.686 2.43549 60.0328C2.34424 60.3795 2.29862 60.7646 2.29862 61.188V61.9929C2.29862 62.3834 2.33877 62.7503 2.41907 63.0934C2.50302 63.4365 2.62895 63.7376 2.79685 63.9968C2.96476 64.2559 3.17829 64.4603 3.43745 64.61C3.6966 64.756 4.00321 64.829 4.35727 64.829C4.80623 64.829 5.16394 64.7578 5.4304 64.6155C5.69685 64.4731 5.89761 64.2687 6.03266 64.0023C6.17137 63.7358 6.26992 63.4164 6.32832 63.0441ZM8.84645 62.6828V62.5568C8.84645 62.1298 8.9085 61.7337 9.0326 61.3687C9.15671 61.0001 9.33556 60.6807 9.56917 60.4106C9.80277 60.1368 10.0857 59.9251 10.4178 59.7754C10.75 59.6221 11.1223 59.5455 11.5347 59.5455C11.9509 59.5455 12.325 59.6221 12.6571 59.7754C12.993 59.9251 13.2777 60.1368 13.5113 60.4106C13.7485 60.6807 13.9292 61.0001 14.0533 61.3687C14.1774 61.7337 14.2395 62.1298 14.2395 62.5568V62.6828C14.2395 63.1098 14.1774 63.5058 14.0533 63.8709C13.9292 64.2359 13.7485 64.5552 13.5113 64.829C13.2777 65.0991 12.9948 65.3108 12.6626 65.4641C12.3341 65.6138 11.9618 65.6886 11.5457 65.6886C11.1296 65.6886 10.7554 65.6138 10.4233 65.4641C10.0911 65.3108 9.80642 65.0991 9.56917 64.829C9.33556 64.5552 9.15671 64.2359 9.0326 63.8709C8.9085 63.5058 8.84645 63.1098 8.84645 62.6828ZM9.85935 62.5568V62.6828C9.85935 62.9784 9.89403 63.2576 9.96338 63.5204C10.0327 63.7796 10.1368 64.0096 10.2755 64.2103C10.4178 64.4111 10.5948 64.5699 10.8066 64.6867C11.0183 64.7998 11.2646 64.8564 11.5457 64.8564C11.8231 64.8564 12.0658 64.7998 12.2739 64.6867C12.4856 64.5699 12.6608 64.4111 12.7995 64.2103C12.9382 64.0096 13.0422 63.7796 13.1116 63.5204C13.1846 63.2576 13.2211 62.9784 13.2211 62.6828V62.5568C13.2211 62.2648 13.1846 61.9892 13.1116 61.7301C13.0422 61.4673 12.9364 61.2355 12.794 61.0347C12.6553 60.8303 12.4801 60.6697 12.2684 60.5529C12.0604 60.4361 11.8158 60.3777 11.5347 60.3777C11.2573 60.3777 11.0128 60.4361 10.8011 60.5529C10.593 60.6697 10.4178 60.8303 10.2755 61.0347C10.1368 61.2355 10.0327 61.4673 9.96338 61.7301C9.89403 61.9892 9.85935 62.2648 9.85935 62.5568ZM16.9656 60.8322V65.5791H15.9473V59.655H16.9109L16.9656 60.8322ZM16.7576 62.3926L16.2867 62.3761C16.2904 61.971 16.3433 61.5968 16.4455 61.2537C16.5477 60.907 16.6992 60.6058 16.8999 60.3503C17.1007 60.0948 17.3507 59.8977 17.65 59.759C17.9494 59.6167 18.2961 59.5455 18.6903 59.5455C18.9677 59.5455 19.2232 59.5856 19.4568 59.6659C19.6904 59.7426 19.893 59.8649 20.0646 60.0328C20.2361 60.2007 20.3694 60.416 20.4643 60.6788C20.5592 60.9417 20.6066 61.2592 20.6066 61.6315V65.5791H19.5937V61.6808C19.5937 61.3705 19.5408 61.1223 19.4349 60.9362C19.3327 60.75 19.1867 60.615 18.9969 60.531C18.8071 60.4434 18.5845 60.3996 18.329 60.3996C18.0297 60.3996 17.7796 60.4525 17.5789 60.5584C17.3781 60.6642 17.2175 60.8103 17.0971 60.9964C16.9766 61.1826 16.889 61.3961 16.8342 61.637C16.7831 61.8743 16.7576 62.1261 16.7576 62.3926ZM20.5957 61.8341L19.9168 62.0422C19.9204 61.7173 19.9733 61.4052 20.0755 61.1059C20.1814 60.8066 20.3329 60.5401 20.53 60.3065C20.7307 60.0729 20.9771 59.8886 21.2691 59.7535C21.5611 59.6148 21.8951 59.5455 22.2711 59.5455C22.5886 59.5455 22.8697 59.5875 23.1142 59.6714C23.3624 59.7554 23.5705 59.885 23.7384 60.0602C23.91 60.2317 24.0395 60.4525 24.1271 60.7226C24.2147 60.9928 24.2585 61.314 24.2585 61.6863V65.5791H23.2402V61.6753C23.2402 61.3432 23.1872 61.0858 23.0814 60.9033C22.9792 60.7172 22.8332 60.5876 22.6434 60.5146C22.4572 60.4379 22.2346 60.3996 21.9754 60.3996C21.7528 60.3996 21.5556 60.4379 21.3841 60.5146C21.2125 60.5912 21.0684 60.6971 20.9516 60.8322C20.8348 60.9636 20.7453 61.115 20.6833 61.2866C20.6249 61.4581 20.5957 61.6406 20.5957 61.8341ZM27.2475 60.8322V65.5791H26.2292V59.655H27.1928L27.2475 60.8322ZM27.0395 62.3926L26.5686 62.3761C26.5723 61.971 26.6252 61.5968 26.7274 61.2537C26.8296 60.907 26.9811 60.6058 27.1818 60.3503C27.3826 60.0948 27.6326 59.8977 27.9319 59.759C28.2312 59.6167 28.578 59.5455 28.9722 59.5455C29.2496 59.5455 29.5051 59.5856 29.7387 59.6659C29.9723 59.7426 30.1749 59.8649 30.3465 60.0328C30.518 60.2007 30.6512 60.416 30.7461 60.6788C30.8411 60.9417 30.8885 61.2592 30.8885 61.6315V65.5791H29.8756V61.6808C29.8756 61.3705 29.8227 61.1223 29.7168 60.9362C29.6146 60.75 29.4686 60.615 29.2788 60.531C29.089 60.4434 28.8664 60.3996 28.6108 60.3996C28.3115 60.3996 28.0615 60.4525 27.8607 60.5584C27.66 60.6642 27.4994 60.8103 27.3789 60.9964C27.2585 61.1826 27.1709 61.3961 27.1161 61.637C27.065 61.8743 27.0395 62.1261 27.0395 62.3926ZM30.8776 61.8341L30.1986 62.0422C30.2023 61.7173 30.2552 61.4052 30.3574 61.1059C30.4633 60.8066 30.6147 60.5401 30.8119 60.3065C31.0126 60.0729 31.259 59.8886 31.551 59.7535C31.843 59.6148 32.177 59.5455 32.5529 59.5455C32.8705 59.5455 33.1516 59.5875 33.3961 59.6714C33.6443 59.7554 33.8524 59.885 34.0203 60.0602C34.1918 60.2317 34.3214 60.4525 34.409 60.7226C34.4966 60.9928 34.5404 61.314 34.5404 61.6863V65.5791H33.522V61.6753C33.522 61.3432 33.4691 61.0858 33.3633 60.9033C33.2611 60.7172 33.1151 60.5876 32.9253 60.5146C32.7391 60.4379 32.5164 60.3996 32.2573 60.3996C32.0346 60.3996 31.8375 60.4379 31.666 60.5146C31.4944 60.5912 31.3502 60.6971 31.2334 60.8322C31.1166 60.9636 31.0272 61.115 30.9652 61.2866C30.9068 61.4581 30.8776 61.6406 30.8776 61.8341ZM40.1465 64.2103V59.655H41.1649V65.5791H40.1958L40.1465 64.2103ZM40.3382 62.962L40.7597 62.951C40.7597 63.3452 40.7178 63.7103 40.6338 64.0461C40.5535 64.3782 40.4221 64.6666 40.2396 64.9111C40.0571 65.1557 39.818 65.3473 39.5224 65.486C39.2267 65.6211 38.8672 65.6886 38.4438 65.6886C38.1554 65.6886 37.8908 65.6466 37.6499 65.5627C37.4126 65.4787 37.2082 65.3491 37.0367 65.1739C36.8651 64.9987 36.7319 64.7706 36.637 64.4895C36.5457 64.2085 36.5001 63.8709 36.5001 63.4766V59.655H37.513V63.4876C37.513 63.7541 37.5422 63.9749 37.6006 64.1501C37.6626 64.3216 37.7448 64.4585 37.847 64.5607C37.9528 64.6593 38.0696 64.7286 38.1974 64.7688C38.3288 64.8089 38.4638 64.829 38.6025 64.829C39.0333 64.829 39.3745 64.7469 39.6264 64.5826C39.8783 64.4147 40.0589 64.1902 40.1684 63.9092C40.2816 63.6245 40.3382 63.3087 40.3382 62.962ZM45.6377 59.655V60.4325H42.4347V59.655H45.6377ZM43.5188 58.215H44.5317V64.1118C44.5317 64.3125 44.5627 64.464 44.6248 64.5662C44.6868 64.6684 44.7671 64.7359 44.8657 64.7688C44.9642 64.8016 45.0701 64.8181 45.1832 64.8181C45.2672 64.8181 45.3548 64.8108 45.446 64.7962C45.5409 64.7779 45.6121 64.7633 45.6596 64.7524L45.665 65.5791C45.5847 65.6047 45.4789 65.6284 45.3475 65.6503C45.2197 65.6758 45.0646 65.6886 44.8821 65.6886C44.6339 65.6886 44.4058 65.6393 44.1977 65.5408C43.9896 65.4422 43.8236 65.278 43.6995 65.048C43.579 64.8144 43.5188 64.5005 43.5188 64.1063V58.215ZM49.7326 65.6886C49.3202 65.6886 48.946 65.6193 48.6102 65.4805C48.2781 65.3382 47.9915 65.1393 47.7506 64.8838C47.5134 64.6283 47.3309 64.3253 47.2031 63.9749C47.0754 63.6245 47.0115 63.2412 47.0115 62.8251V62.5951C47.0115 62.1133 47.0827 61.6844 47.225 61.3085C47.3674 60.9289 47.5608 60.6077 47.8054 60.3449C48.0499 60.0821 48.3273 59.8831 48.6376 59.7481C48.9479 59.613 49.2691 59.5455 49.6012 59.5455C50.0246 59.5455 50.3897 59.6185 50.6963 59.7645C51.0065 59.9105 51.2602 60.1149 51.4573 60.3777C51.6544 60.6369 51.8004 60.9435 51.8953 61.2975C51.9902 61.6479 52.0377 62.0312 52.0377 62.4473V62.9018H47.6138V62.075H51.0248V61.9984C51.0102 61.7356 50.9554 61.48 50.8605 61.2318C50.7693 60.9836 50.6233 60.7792 50.4225 60.6186C50.2217 60.458 49.948 60.3777 49.6012 60.3777C49.3713 60.3777 49.1596 60.427 48.9661 60.5255C48.7727 60.6204 48.6066 60.7628 48.4679 60.9526C48.3292 61.1424 48.2215 61.3742 48.1448 61.6479C48.0682 61.9217 48.0299 62.2374 48.0299 62.5951V62.8251C48.0299 63.1062 48.0682 63.3708 48.1448 63.619C48.2251 63.8636 48.3401 64.0789 48.4898 64.2651C48.6431 64.4512 48.8274 64.5972 49.0428 64.7031C49.2618 64.8089 49.51 64.8619 49.7874 64.8619C50.1451 64.8619 50.4481 64.7889 50.6963 64.6429C50.9445 64.4968 51.1616 64.3016 51.3478 64.057L51.961 64.5443C51.8333 64.7378 51.6708 64.9221 51.4737 65.0973C51.2766 65.2725 51.0339 65.4148 50.7455 65.5244C50.4608 65.6339 50.1232 65.6886 49.7326 65.6886Z" fill="#8E8E94"/>
</svg>
