<svg width="50" height="70" viewBox="0 0 50 70" fill="none" xmlns="http://www.w3.org/2000/svg">
<rect x="0.152771" y="0.719391" width="48.8794" height="48.8794" rx="11.9606" fill="#F9668D"/>
<path d="M23.7371 21.7672H25.4491V20.9192C25.4491 20.6943 25.5393 20.4786 25.6998 20.3196C25.8604 20.1605 26.0781 20.0712 26.3051 20.0712H28.8732C29.1002 20.0712 29.3179 20.1605 29.4785 20.3196C29.639 20.4786 29.7292 20.6943 29.7292 20.9192V21.7672H33.1533V18.3752C33.1533 17.4756 32.7925 16.6128 32.1504 15.9767C31.5082 15.3406 30.6373 14.9832 29.7292 14.9832H19.457C18.5489 14.9832 17.6779 15.3406 17.0358 15.9767C16.3936 16.6128 16.0329 17.4756 16.0329 18.3752V21.7672H19.457V20.9192C19.457 20.6943 19.5472 20.4786 19.7077 20.3196C19.8682 20.1605 20.086 20.0712 20.313 20.0712H22.881C23.1081 20.0712 23.3258 20.1605 23.4863 20.3196C23.6469 20.4786 23.7371 20.6943 23.7371 20.9192V21.7672Z" fill="white"/>
<path d="M16.889 23.4632C15.7539 23.4632 14.6653 23.9099 13.8626 24.705C13.06 25.5002 12.6091 26.5786 12.6091 27.7031V34.4871C12.6091 34.712 12.6993 34.9277 12.8598 35.0867C13.0203 35.2457 13.238 35.3351 13.4651 35.3351C13.6921 35.3351 13.9098 35.2457 14.0703 35.0867C14.2308 34.9277 14.321 34.712 14.321 34.4871V30.2471H34.8646V34.4871C34.8646 34.712 34.9548 34.9277 35.1153 35.0867C35.2758 35.2457 35.4936 35.3351 35.7206 35.3351C35.9476 35.3351 36.1653 35.2457 36.3258 35.0867C36.4864 34.9277 36.5766 34.712 36.5766 34.4871V27.7031C36.5766 26.5786 36.1256 25.5002 35.323 24.705C34.5204 23.9099 33.4318 23.4632 32.2966 23.4632H16.889Z" fill="white"/>
<path d="M16.1476 61.0347V61.8943H11.8332V61.0347H16.1476ZM11.9974 57.6073V65.5791H10.9407V57.6073H11.9974ZM17.0674 57.6073V65.5791H16.0162V57.6073H17.0674ZM18.9723 62.6828V62.5568C18.9723 62.1298 19.0344 61.7337 19.1585 61.3687C19.2826 61.0001 19.4615 60.6807 19.6951 60.4106C19.9287 60.1368 20.2115 59.9251 20.5437 59.7754C20.8759 59.6221 21.2482 59.5455 21.6606 59.5455C22.0767 59.5455 22.4509 59.6221 22.783 59.7754C23.1188 59.9251 23.4036 60.1368 23.6372 60.4106C23.8744 60.6807 24.0551 61.0001 24.1792 61.3687C24.3033 61.7337 24.3654 62.1298 24.3654 62.5568V62.6828C24.3654 63.1098 24.3033 63.5058 24.1792 63.8709C24.0551 64.2359 23.8744 64.5552 23.6372 64.829C23.4036 65.0991 23.1207 65.3108 22.7885 65.4641C22.46 65.6138 22.0877 65.6886 21.6716 65.6886C21.2555 65.6886 20.8813 65.6138 20.5492 65.4641C20.217 65.3108 19.9323 65.0991 19.6951 64.829C19.4615 64.5552 19.2826 64.2359 19.1585 63.8709C19.0344 63.5058 18.9723 63.1098 18.9723 62.6828ZM19.9852 62.5568V62.6828C19.9852 62.9784 20.0199 63.2576 20.0893 63.5204C20.1586 63.7796 20.2626 64.0096 20.4014 64.2103C20.5437 64.4111 20.7207 64.5699 20.9324 64.6867C21.1441 64.7998 21.3905 64.8564 21.6716 64.8564C21.949 64.8564 22.1917 64.7998 22.3998 64.6867C22.6115 64.5699 22.7867 64.4111 22.9254 64.2103C23.0641 64.0096 23.1681 63.7796 23.2375 63.5204C23.3105 63.2576 23.347 62.9784 23.347 62.6828V62.5568C23.347 62.2648 23.3105 61.9892 23.2375 61.7301C23.1681 61.4673 23.0623 61.2355 22.9199 61.0347C22.7812 60.8303 22.606 60.6697 22.3943 60.5529C22.1862 60.4361 21.9417 60.3777 21.6606 60.3777C21.3832 60.3777 21.1387 60.4361 20.927 60.5529C20.7189 60.6697 20.5437 60.8303 20.4014 61.0347C20.2626 61.2355 20.1586 61.4673 20.0893 61.7301C20.0199 61.9892 19.9852 62.2648 19.9852 62.5568ZM28.5644 59.655V60.4325H25.3614V59.655H28.5644ZM26.4455 58.215H27.4584V64.1118C27.4584 64.3125 27.4894 64.464 27.5515 64.5662C27.6135 64.6684 27.6938 64.7359 27.7924 64.7688C27.8909 64.8016 27.9968 64.8181 28.1099 64.8181C28.1939 64.8181 28.2815 64.8108 28.3727 64.7962C28.4676 64.7779 28.5388 64.7633 28.5863 64.7524L28.5917 65.5791C28.5114 65.6047 28.4056 65.6284 28.2742 65.6503C28.1464 65.6758 27.9913 65.6886 27.8088 65.6886C27.5606 65.6886 27.3324 65.6393 27.1244 65.5408C26.9163 65.4422 26.7503 65.278 26.6262 65.048C26.5057 64.8144 26.4455 64.5005 26.4455 64.1063V58.215ZM32.6593 65.6886C32.2469 65.6886 31.8727 65.6193 31.5369 65.4805C31.2048 65.3382 30.9182 65.1393 30.6773 64.8838C30.4401 64.6283 30.2576 64.3253 30.1298 63.9749C30.0021 63.6245 29.9382 63.2412 29.9382 62.8251V62.5951C29.9382 62.1133 30.0094 61.6844 30.1517 61.3085C30.2941 60.9289 30.4875 60.6077 30.7321 60.3449C30.9766 60.0821 31.254 59.8831 31.5643 59.7481C31.8746 59.613 32.1958 59.5455 32.5279 59.5455C32.9513 59.5455 33.3163 59.6185 33.6229 59.7645C33.9332 59.9105 34.1869 60.1149 34.384 60.3777C34.5811 60.6369 34.7271 60.9435 34.822 61.2975C34.9169 61.6479 34.9644 62.0312 34.9644 62.4473V62.9018H30.5404V62.075H33.9515V61.9984C33.9369 61.7356 33.8821 61.48 33.7872 61.2318C33.6959 60.9836 33.5499 60.7792 33.3492 60.6186C33.1484 60.458 32.8747 60.3777 32.5279 60.3777C32.298 60.3777 32.0863 60.427 31.8928 60.5255C31.6993 60.6204 31.5333 60.7628 31.3946 60.9526C31.2559 61.1424 31.1482 61.3742 31.0715 61.6479C30.9949 61.9217 30.9566 62.2374 30.9566 62.5951V62.8251C30.9566 63.1062 30.9949 63.3708 31.0715 63.619C31.1518 63.8636 31.2668 64.0789 31.4165 64.2651C31.5698 64.4512 31.7541 64.5972 31.9695 64.7031C32.1885 64.8089 32.4367 64.8619 32.7141 64.8619C33.0718 64.8619 33.3747 64.7889 33.6229 64.6429C33.8712 64.4968 34.0883 64.3016 34.2745 64.057L34.8877 64.5443C34.76 64.7378 34.5975 64.9221 34.4004 65.0973C34.2033 65.2725 33.9606 65.4148 33.6722 65.5244C33.3875 65.6339 33.0499 65.6886 32.6593 65.6886ZM37.696 57.1693V65.5791H36.6776V57.1693H37.696Z" fill="#8E8E94"/>
</svg>
